<?xml version="1.0" standalone="no"?>
<!DOCTYPE svg PUBLIC "-//W3C//DTD SVG 20010904//EN"
 "http://www.w3.org/TR/2001/REC-SVG-20010904/DTD/svg10.dtd">
<svg version="1.0" xmlns="http://www.w3.org/2000/svg"
 width="602.000000pt" height="714.000000pt" viewBox="0 0 602.000000 714.000000"
 preserveAspectRatio="xMidYMid meet">

<g transform="translate(0.000000,714.000000) scale(0.100000,-0.100000)"
fill="#000000" stroke="none">
<path d="M2210 6014 c-432 -251 -792 -463 -800 -470 -13 -13 -15 -134 -18
-943 l-4 -929 34 -24 c28 -21 435 -257 1410 -817 97 -55 186 -101 197 -101 12
0 110 51 219 114 597 344 933 537 1151 662 134 76 250 149 258 161 13 20 14
136 8 944 -6 654 -11 924 -19 930 -38 32 -1611 929 -1629 929 -12 0 -375 -205
-807 -456z m1565 -118 l750 -433 6 -359 c4 -197 7 -585 8 -861 l1 -503 -37
-23 c-21 -13 -361 -209 -756 -436 l-718 -413 -312 179 c-172 99 -511 294 -754
434 l-443 254 0 861 c0 677 3 864 13 871 6 6 266 158 577 338 797 463 904 525
910 525 3 0 343 -196 755 -434z"/>
<path d="M2497 5762 c-328 -191 -597 -349 -597 -352 0 -3 70 -44 155 -93 l155
-87 218 126 c119 69 227 132 238 140 20 12 41 1 250 -122 126 -74 230 -138
232 -142 1 -4 -101 -68 -228 -141 -126 -74 -230 -137 -230 -140 0 -10 300
-176 313 -173 12 3 1135 653 1170 677 16 11 0 23 -137 103 l-156 90 -215 -124
c-119 -69 -222 -124 -229 -122 -20 5 -456 262 -456 269 0 4 80 53 178 109 244
141 243 141 237 149 -2 4 -62 41 -132 81 -70 40 -137 79 -148 86 -18 12 -80
-22 -618 -334z"/>
<path d="M1790 4767 c0 -477 5 -540 53 -682 51 -149 141 -297 251 -412 149
-158 340 -263 475 -263 89 0 130 16 187 74 43 42 56 64 75 126 24 74 24 80 24
530 l0 454 -150 88 c-82 48 -153 88 -157 88 -5 0 -8 -198 -8 -440 0 -354 -3
-447 -14 -474 -42 -101 -166 -85 -289 36 -65 64 -111 151 -128 242 -7 37 -9
207 -7 476 l3 419 -105 60 c-58 33 -129 74 -157 91 l-53 30 0 -443z"/>
<path d="M4095 5111 l-150 -87 -3 -692 c-1 -381 1 -692 4 -692 4 0 76 39 160
88 l153 87 -1 545 c0 300 -3 611 -7 691 l-6 147 -150 -87z"/>
<path d="M3545 4794 c-82 -48 -151 -88 -153 -89 -1 -1 -3 -231 -5 -511 -2
-408 -5 -514 -16 -534 -27 -49 -87 -102 -168 -148 l-83 -46 0 -154 0 -153 23
7 c104 32 244 120 340 213 82 79 146 178 184 286 l28 80 3 475 c2 261 2 517 0
567 l-3 93 -150 -86z"/>
<path d="M791 2442 c-19 -35 -229 -501 -236 -523 -6 -18 -3 -20 25 -17 28 3
34 10 60 68 l29 65 153 3 154 2 31 -70 c29 -65 34 -70 62 -70 17 0 31 3 31 8
0 4 -56 129 -123 277 -113 248 -125 270 -149 273 -18 2 -30 -3 -37 -16z m100
-210 l56 -127 -120 -3 c-66 -1 -121 -1 -123 1 -3 2 12 39 32 83 20 43 47 103
60 133 13 30 28 51 32 47 4 -4 32 -65 63 -134z"/>
<path d="M1264 2442 c-75 -36 -108 -106 -85 -183 16 -52 61 -81 181 -114 103
-28 140 -55 140 -101 0 -61 -48 -94 -135 -94 -56 0 -118 23 -158 58 -16 14
-20 14 -40 -7 l-22 -22 25 -19 c112 -88 276 -92 355 -10 23 25 30 41 33 90 4
59 4 61 -34 98 -33 33 -55 43 -142 67 -82 22 -107 33 -127 57 -27 32 -30 44
-15 82 22 60 130 74 219 29 52 -25 54 -26 68 -8 19 27 13 36 -40 64 -65 33
-167 39 -223 13z"/>
<path d="M1690 2175 l0 -275 30 0 30 0 0 94 0 93 104 5 c120 5 186 31 222 85
64 97 17 232 -91 262 -22 6 -97 11 -167 11 l-128 0 0 -275z m290 200 c89 -46
79 -171 -16 -211 -20 -8 -70 -14 -124 -14 l-90 0 0 120 0 120 100 0 c70 0 110
-5 130 -15z"/>
<path d="M2220 2175 l0 -275 200 0 200 0 0 25 0 25 -167 2 -168 3 -3 98 -3 97
151 0 150 0 0 30 0 30 -150 0 -150 0 0 90 0 90 170 0 170 0 0 30 0 30 -200 0
-200 0 0 -275z"/>
<path d="M2750 2175 l0 -275 30 0 30 0 0 105 0 105 83 0 82 -1 78 -104 c72
-98 80 -105 112 -105 19 0 35 3 35 6 0 3 -36 53 -80 110 l-80 104 40 16 c22 9
53 31 69 50 76 86 35 219 -77 252 -22 7 -101 12 -181 12 l-141 0 0 -275z m326
196 c46 -28 61 -80 37 -129 -28 -57 -68 -72 -195 -72 l-108 0 0 110 0 110 118
0 c98 0 122 -3 148 -19z"/>
<path d="M3680 2175 l0 -275 30 0 30 0 0 125 0 125 160 0 160 0 0 -125 0 -125
30 0 30 0 0 275 0 275 -30 0 -30 0 0 -120 0 -120 -160 0 -160 0 0 120 0 120
-30 0 -30 0 0 -275z"/>
<path d="M4290 2253 c0 -171 3 -204 19 -238 40 -88 117 -130 223 -123 79 5
132 31 168 80 40 55 50 115 50 309 l0 170 -30 -3 -30 -3 -3 -185 c-2 -162 -4
-190 -22 -225 -29 -58 -75 -85 -144 -85 -74 0 -119 24 -148 80 -22 40 -23 55
-23 232 l0 188 -30 0 -30 0 0 -197z"/>
<path d="M5110 2268 c0 -219 -5 -250 -40 -288 -23 -25 -36 -30 -74 -30 -39 0
-52 6 -85 36 -34 30 -43 34 -60 24 -28 -15 -26 -31 7 -63 61 -59 148 -72 222
-34 79 40 85 58 88 315 l3 222 -30 0 -31 0 0 -182z"/>
<path d="M5340 2175 l0 -275 30 0 30 0 0 275 0 275 -30 0 -30 0 0 -275z"/>
<path d="M3310 2135 l0 -35 110 0 110 0 0 35 0 35 -110 0 -110 0 0 -35z"/>
<path d="M2546 1604 c-152 -48 -249 -182 -250 -344 0 -134 59 -244 164 -308
75 -44 119 -54 219 -50 149 6 252 74 314 206 27 59 31 78 31 152 0 72 -5 95
-28 147 -34 74 -113 153 -183 184 -64 28 -199 35 -267 13z m222 -123 c179 -92
167 -377 -20 -455 -121 -51 -274 25 -312 153 -20 68 -20 94 -1 159 43 142 201
210 333 143z"/>
<path d="M590 1260 l0 -350 60 0 60 0 0 350 0 350 -60 0 -60 0 0 -350z"/>
<path d="M840 1260 l0 -350 60 0 60 0 2 246 3 246 190 -246 190 -246 53 0 52
0 0 350 0 350 -60 0 -60 0 0 -235 c0 -129 -3 -235 -7 -234 -5 0 -89 106 -188
234 l-180 235 -57 0 -58 0 0 -350z"/>
<path d="M1570 1260 l0 -350 60 0 60 0 0 240 c0 132 4 240 8 240 5 0 91 -108
193 -240 l184 -239 53 -1 52 0 0 350 0 350 -60 0 -60 0 0 -241 0 -242 -187
242 -186 241 -59 0 -58 0 0 -350z"/>
<path d="M3024 1593 c3 -10 68 -169 144 -353 l139 -335 54 -3 54 -3 138 335
c76 184 141 344 144 355 5 20 1 21 -59 21 l-64 0 -51 -132 c-29 -73 -75 -193
-104 -266 -28 -73 -54 -130 -58 -127 -3 4 -51 122 -106 263 l-101 257 -68 3
c-61 3 -67 1 -62 -15z"/>
<path d="M3765 1268 c-83 -188 -151 -345 -153 -350 -2 -4 25 -8 60 -8 l64 0
35 83 35 82 165 3 166 2 34 -82 34 -83 67 -3 68 -3 -18 40 c-9 21 -78 179
-152 350 l-135 311 -60 0 -61 0 -149 -342z m265 67 c28 -66 54 -126 57 -132 4
-10 -22 -13 -111 -13 -64 0 -116 4 -116 8 0 5 18 51 41 103 22 52 47 109 55
128 8 19 16 32 18 30 2 -2 27 -58 56 -124z"/>
<path d="M4292 1553 l3 -58 108 -3 107 -3 0 -289 0 -290 65 0 65 0 0 290 0
289 108 3 107 3 3 58 3 57 -286 0 -286 0 3 -57z"/>
<path d="M4950 1260 l0 -350 263 2 262 3 0 50 0 50 -203 3 -203 2 3 93 3 92
173 3 172 2 0 55 0 55 -175 0 -176 0 3 88 3 87 198 3 197 2 0 55 0 55 -260 0
-260 0 0 -350z"/>
</g>
</svg>
